<?xml version="1.0" encoding="UTF-8" standalone="no"?><!DOCTYPE svg PUBLIC "-//W3C//DTD SVG 1.1//EN" "http://www.w3.org/Graphics/SVG/1.1/DTD/svg11.dtd"><svg width="100%" height="100%" viewBox="0 0 904 892" version="1.1" xmlns="http://www.w3.org/2000/svg" xmlns:xlink="http://www.w3.org/1999/xlink" xml:space="preserve" xmlns:serif="http://www.serif.com/" style="fill-rule:evenodd;clip-rule:evenodd;stroke-linejoin:bevel;"><g><circle cx="451.98" cy="445.86" r="429.002" style="fill:#fff;"/><path d="M451.98,9.885c-240.621,0 -435.975,195.354 -435.975,435.975c0,240.621 195.354,435.975 435.975,435.975c240.621,-0 435.975,-195.354 435.975,-435.975c-0,-240.621 -195.354,-435.975 -435.975,-435.975Zm-0,6.973c236.773,0 429.002,192.229 429.002,429.002c-0,236.773 -192.229,429.002 -429.002,429.002c-236.773,-0 -429.002,-192.229 -429.002,-429.002c0,-236.773 192.229,-429.002 429.002,-429.002Z" style="fill:#160800;"/><circle cx="451.98" cy="445.86" r="326.111" style="fill:#fff;"/><path d="M451.98,112.776c-183.834,-0 -333.084,149.25 -333.084,333.084c-0,183.834 149.25,333.084 333.084,333.084c183.834,0 333.084,-149.25 333.084,-333.084c0,-183.834 -149.25,-333.084 -333.084,-333.084Zm0,6.973c179.986,-0 326.111,146.125 326.111,326.111c0,179.986 -146.125,326.111 -326.111,326.111c-179.986,0 -326.111,-146.125 -326.111,-326.111c-0,-179.986 146.125,-326.111 326.111,-326.111Z" style="fill:#160800;"/><g><path d="M451.977,799.005l-6.987,21.656l-22.755,-0.043l18.434,13.337l-7.074,21.629l18.383,-13.416l18.384,13.41l-7.074,-21.623l18.437,-13.341l-22.757,0.047l-6.991,-21.656Z" style="fill:#160800;"/></g><g><path d="M544.848,786.636l-1.144,22.727l-21.991,5.847l21.258,8.112l-1.234,22.722l14.284,-17.716l21.229,8.195l-12.43,-19.056l14.356,-17.658l-21.97,5.936l-12.358,-19.109Z" style="fill:#160800;"/></g><g><path d="M622.034,757.838l4.945,22.212l-19.642,11.489l22.65,2.162l4.857,22.232l9.055,-20.879l22.643,2.251l-17.052,-15.062l9.139,-20.842l-19.598,11.569l-16.997,-15.132Z" style="fill:#160800;"/></g><g><path d="M690.682,703.468l9.955,20.464l-16.448,15.724l22.535,-3.141l9.873,20.502l3.974,-22.408l22.549,-3.054l-20.076,-10.703l4.064,-22.392l-16.386,15.793l-20.04,-10.785Z" style="fill:#160800;"/></g><g><path d="M748.755,638.628l13.374,18.412l-13.45,18.354l21.641,-7.027l13.3,18.464l0.001,-22.758l21.67,-6.943l-21.636,-7.034l0.093,-22.757l-13.378,18.41l-21.615,-7.121Z" style="fill:#160800;"/></g><g><path d="M359.335,786.636l1.144,22.727l21.991,5.847l-21.258,8.112l1.235,22.722l-14.285,-17.716l-21.228,8.195l12.43,-19.056l-14.356,-17.658l21.969,5.936l12.358,-19.109Z" style="fill:#160800;"/></g><g><path d="M282.15,757.838l-4.945,22.212l19.642,11.489l-22.651,2.162l-4.856,22.232l-9.055,-20.879l-22.644,2.251l17.052,-15.062l-9.139,-20.842l19.598,11.569l16.998,-15.132Z" style="fill:#160800;"/></g><g><path d="M213.502,703.468l-9.955,20.464l16.448,15.724l-22.535,-3.141l-9.874,20.502l-3.973,-22.408l-22.55,-3.054l20.077,-10.703l-4.064,-22.392l16.386,15.793l20.04,-10.785Z" style="fill:#160800;"/></g><g><path d="M155.428,638.628l-13.373,18.412l13.45,18.354l-21.641,-7.027l-13.301,18.464l-0,-22.758l-21.671,-6.943l21.637,-7.034l-0.093,-22.757l13.378,18.41l21.614,-7.121Z" style="fill:#160800;"/></g><path d="M262.214,260.519l372.391,-0c12.704,194.949 -32.774,364.755 -187.148,458.108c-141.663,-96.158 -211.84,-242.898 -185.243,-458.108Z" style="fill:#0061b0;"/><path d="M638.91,255.924l-380.758,0l-0.498,4.031c-26.854,217.297 44.186,365.383 187.223,462.474l2.437,1.654l2.521,-1.524c155.856,-94.25 202.181,-265.518 189.355,-462.339l-0.28,-4.296Zm-376.696,4.595l372.391,-0c12.704,194.949 -32.774,364.755 -187.148,458.108c-141.663,-96.158 -211.84,-242.898 -185.243,-458.108Z" style="fill:#160800;"/><path d="M486.508,471.313l79.319,-63.204c-0,-0 23.699,4.472 33.208,-1.867c9.509,-6.339 22.675,-22.675 20.481,-34.866c-0,0 -1.916,-4.661 -6.41,-0.292c-4.494,4.369 -15.604,10.236 -15.604,10.236c-0,0 -14.535,-18.24 -13.911,-21.985l24.498,-18.413c0,-0 3.589,-4.994 0,-7.958c-3.589,-2.965 -27.912,-19.818 -46.335,-4.994c-18.422,14.824 -24.196,38.231 -20.919,55.239c0,0 1.56,2.963 -1.56,6.085l-55.935,46.862l3.168,35.157Z" style="fill:#fff;"/><path d="M585.733,360.226l23.802,-17.889l0.178,-0.248c0,0 1.102,-1.523 1.65,-3.5c0.633,-2.288 0.536,-5.073 -2,-7.167c-1.865,-1.541 -9.11,-6.699 -18.288,-9.537c-9.403,-2.907 -20.768,-3.364 -30.574,4.527c-19.066,15.342 -25.021,39.573 -21.63,57.176l0.056,0.291l0.138,0.262c0,0 0.732,1.75 -1.145,3.679c-2.246,1.881 -55.865,46.803 -55.865,46.803l-0.801,0.672l3.595,39.897l81.52,-64.958c2.464,0.411 9.56,1.471 16.887,1.404c6.337,-0.058 12.817,-1.017 16.889,-3.732c5.923,-3.949 13.221,-11.626 17.613,-19.876c3.05,-5.728 4.675,-11.736 3.726,-17.008l-0.038,-0.209l-0.08,-0.197c-0,0 -1.138,-2.618 -3.555,-3.251c-1.449,-0.38 -3.532,-0.211 -6.099,2.285c-3.368,3.275 -10.579,7.404 -13.678,9.109c-2.103,-2.702 -6.941,-9.045 -10.007,-14.066c-0.969,-1.586 -1.758,-3.028 -2.19,-4.156c-0.037,-0.096 -0.072,-0.203 -0.104,-0.311Zm-99.225,111.087l79.319,-63.204c-0,-0 23.699,4.472 33.208,-1.867c9.509,-6.339 22.675,-22.675 20.481,-34.866c-0,0 -1.916,-4.661 -6.41,-0.292c-4.494,4.369 -15.604,10.236 -15.604,10.236c-0,0 -14.535,-18.24 -13.911,-21.985l24.498,-18.413c0,-0 3.589,-4.994 0,-7.958c-3.589,-2.965 -27.912,-19.818 -46.335,-4.994c-18.422,14.824 -24.196,38.231 -20.919,55.239c0,0 1.56,2.963 -1.56,6.085l-55.935,46.862l3.168,35.157Z" style="fill:#160800;"/><path d="M341.043,386.773l71.017,62.226l-1.997,25.043l-80.967,-67.276c0,0 -4.145,-4.876 -7.558,-0.244c-3.413,4.633 -13.897,24.138 -19.018,23.894c-5.12,-0.243 -34.622,-19.993 -34.134,-27.063c0.488,-7.071 2.682,-7.393 6.827,-14.059c4.145,-6.666 44.862,-56.892 49.495,-59.086c4.632,-2.194 6.095,-6.827 9.752,-5.364c3.658,1.463 31.209,23.65 31.94,26.576c0.732,2.926 -10.24,14.385 -12.678,18.042c-2.438,3.658 -12.679,17.311 -12.679,17.311Z" style="fill:#fff;"/><path d="M343.754,386.489c2.727,-3.651 9.676,-12.984 11.632,-15.917c1.705,-2.558 7.588,-8.933 10.713,-13.532c1.091,-1.604 1.86,-3.04 2.155,-4.096c0.222,-0.793 0.221,-1.473 0.087,-2.009c-0.085,-0.339 -0.306,-0.84 -0.743,-1.43c-0.571,-0.772 -1.638,-1.909 -3.066,-3.277c-7.701,-7.374 -26.343,-22.047 -29.329,-23.241c-2.227,-0.891 -3.932,-0.372 -5.613,0.875c-1.573,1.167 -3.099,3.288 -5.739,4.538c-1.004,0.476 -3.646,2.961 -7.15,6.809c-12.998,14.271 -39.853,47.668 -43.186,53.029c-1.629,2.619 -2.954,4.24 -3.985,5.688c-1.77,2.487 -2.81,4.519 -3.139,9.289c-0.081,1.171 0.336,2.625 1.317,4.222c1.14,1.856 3.078,4.029 5.503,6.295c6.297,5.882 15.938,12.504 22.409,16.007c3.097,1.676 5.582,2.617 6.805,2.675c0.958,0.046 2.064,-0.272 3.229,-1.02c1.252,-0.803 2.66,-2.154 4.111,-3.86c5.083,-5.977 10.98,-16.563 13.383,-19.825c0.409,-0.556 0.809,-0.915 1.23,-1.083c0.74,-0.296 1.439,0.075 1.974,0.412c0.735,0.464 1.22,1.024 1.22,1.024l0.113,0.132l84.065,69.85l2.384,-29.887l-70.38,-61.668Zm-2.711,0.284l71.017,62.226l-1.997,25.043l-80.967,-67.276c0,0 -4.145,-4.876 -7.558,-0.244c-3.413,4.633 -13.897,24.138 -19.018,23.894c-5.12,-0.243 -34.622,-19.993 -34.134,-27.063c0.488,-7.071 2.682,-7.393 6.827,-14.059c4.145,-6.666 44.862,-56.892 49.495,-59.086c4.632,-2.194 6.095,-6.827 9.752,-5.364c3.658,1.463 31.209,23.65 31.94,26.576c0.732,2.926 -10.24,14.385 -12.678,18.042c-2.438,3.658 -12.679,17.311 -12.679,17.311Z" style="fill:#160800;"/><path d="M315.37,416.184l-38.395,-29.419" style="fill:none;stroke:#cebf88;stroke-width:4px;"/><path d="M270.552,395.978l38.111,29.722" style="fill:none;stroke:#cebf88;stroke-width:4px;"/><path d="M318.762,335.918l37.276,30.555" style="fill:none;stroke:#cebf88;stroke-width:4px;"/><path d="M324.44,330.362l36.749,29.88" style="fill:none;stroke:#cebf88;stroke-width:4px;"/><path d="M550.334,476.829l-5.932,-22.139l-13.832,3.707c-3.143,-7.647 -7.237,-14.691 -12.137,-20.997l10.135,-10.135l-16.206,-16.205l-10.184,10.184c-6.42,-4.943 -13.477,-9.011 -20.973,-12.087l3.732,-13.931l-22.138,-5.932l-3.727,13.908c-7.899,-1.074 -16.029,-1.087 -24.208,0.022l-3.733,-13.929l-22.138,5.931l3.725,13.901c-7.656,3.114 -14.706,7.182 -21.028,12.053l-10.122,-10.12l-16.206,16.206l10.097,10.096c-4.987,6.424 -9.087,13.496 -12.196,21.008l-13.734,-3.679l-5.933,22.139l13.635,3.653c-1.106,7.946 -1.132,16.133 -0.027,24.367l-13.607,3.646l5.932,22.138l13.551,-3.631c3.129,7.722 7.227,14.829 12.142,21.197l-9.861,9.858l16.208,16.208l9.849,-9.85c6.473,5.016 13.601,9.137 21.176,12.247l-3.601,13.437l22.138,5.931l3.592,-13.405c7.983,1.091 16.205,1.094 24.471,-0.047l3.605,13.451l22.138,-5.931l-3.612,-13.481c7.71,-3.159 14.812,-7.283 21.164,-12.225l9.872,9.872l16.207,-16.205l-9.938,-9.938c4.973,-6.47 9.062,-13.582 12.14,-21.14l13.632,3.653l5.932,-22.14l-13.678,-3.664c1.056,-7.935 1.049,-16.1 -0.097,-24.312l13.775,-3.69Zm-103.369,-57.666c40.566,-0 73.5,32.934 73.5,73.5c-0,40.565 -32.934,73.499 -73.5,73.499c-40.566,0 -73.5,-32.934 -73.5,-73.499c0,-40.566 32.934,-73.5 73.5,-73.5Z" style="fill:#cebf88;fill-rule:nonzero;"/><path d="M551.11,479.726l2.898,-0.776l-7.484,-27.934l-14.218,3.81c-2.724,-6.137 -6.051,-11.876 -9.908,-17.149c0,-0 10.413,-10.412 10.413,-10.412l-20.449,-20.448l-10.468,10.469c-5.343,-3.88 -11.082,-7.188 -17.118,-9.866c0,-0 3.835,-14.315 3.835,-14.315l-27.933,-7.485l-3.83,14.291c-6.481,-0.69 -13.099,-0.694 -19.761,0.021c0,-0 -3.834,-14.312 -3.834,-14.312l-27.934,7.485l3.825,14.277c-6.142,2.701 -11.886,6.007 -17.17,9.84c0,-0 -10.406,-10.405 -10.406,-10.405l-20.449,20.449l10.374,10.374c-3.916,5.352 -7.254,11.107 -9.96,17.161c0,0 -14.125,-3.784 -14.125,-3.784l-7.486,27.934l14.01,3.754c-0.715,6.531 -0.729,13.204 -0.016,19.92c-0,0 -13.993,3.75 -13.993,3.75l7.484,27.933l13.924,-3.73c2.72,6.207 6.056,12.008 9.931,17.339c-0,0 -10.144,10.141 -10.144,10.141l20.451,20.45l10.128,-10.128c5.401,3.946 11.212,7.306 17.326,10.019c-0,0 -3.705,13.822 -3.705,13.822l27.935,7.484l3.694,-13.786c6.567,0.703 13.275,0.699 20.025,-0.042c0,-0 3.705,13.828 3.705,13.828l27.934,-7.485l-3.715,-13.863c6.2,-2.743 11.996,-6.101 17.317,-9.997c0,-0 10.148,10.148 10.148,10.148l20.45,-20.448l-10.224,-10.224c3.91,-5.392 7.241,-11.186 9.926,-17.281c0,-0 14.01,3.754 14.01,3.754l7.485,-27.935l-14.068,-3.769c0.678,-6.516 0.664,-13.169 -0.079,-19.864c-0,-0 11.249,-3.015 11.249,-3.015Zm-0.776,-2.897l-5.932,-22.139l-13.832,3.707c-3.143,-7.647 -7.237,-14.691 -12.137,-20.997l10.135,-10.135l-16.206,-16.205l-10.184,10.184c-6.42,-4.943 -13.477,-9.011 -20.973,-12.087l3.732,-13.931l-22.138,-5.932l-3.727,13.908c-7.899,-1.074 -16.029,-1.087 -24.208,0.022l-3.733,-13.929l-22.138,5.931l3.725,13.901c-7.656,3.114 -14.706,7.182 -21.028,12.053l-10.122,-10.12l-16.206,16.206l10.097,10.096c-4.987,6.424 -9.087,13.496 -12.196,21.008l-13.734,-3.679l-5.933,22.139l13.635,3.653c-1.106,7.946 -1.132,16.133 -0.027,24.367l-13.607,3.646l5.932,22.138l13.551,-3.631c3.129,7.722 7.227,14.829 12.142,21.197l-9.861,9.858l16.208,16.208l9.849,-9.85c6.473,5.016 13.601,9.137 21.176,12.247l-3.601,13.437l22.138,5.931l3.592,-13.405c7.983,1.091 16.205,1.094 24.471,-0.047l3.605,13.451l22.138,-5.931l-3.612,-13.481c7.71,-3.159 14.812,-7.283 21.164,-12.225l9.872,9.872l16.207,-16.205l-9.938,-9.938c4.973,-6.47 9.062,-13.582 12.14,-21.14l13.632,3.653l5.932,-22.14l-13.678,-3.664c1.056,-7.935 1.049,-16.1 -0.097,-24.312l13.775,-3.69Zm-103.369,-57.666c40.566,-0 73.5,32.934 73.5,73.5c-0,40.565 -32.934,73.499 -73.5,73.499c-40.566,0 -73.5,-32.934 -73.5,-73.499c0,-40.566 32.934,-73.5 73.5,-73.5Zm0,3c38.91,-0 70.5,31.59 70.5,70.5c-0,38.909 -31.59,70.499 -70.5,70.499c-38.91,0 -70.5,-31.59 -70.5,-70.499c0,-38.91 31.59,-70.5 70.5,-70.5Z" style="fill:#160800;"/><path d="M407.209,508.298l-72.414,62.417c0,0 -5.242,6.218 0,11.46c5.242,5.242 12.923,-0 12.923,-0l57.401,-46.151l2.09,-27.726Z" style="fill:#fff;"/><path d="M407.048,537.039l2.519,-33.413l-76.198,65.678l-0.103,0.122c0,0 -6.364,7.684 0.115,14.163c3.22,3.22 7.171,3.295 10.334,2.49c2.941,-0.748 5.13,-2.252 5.13,-2.252l0.065,-0.044l58.138,-46.744Zm0.161,-28.741l-72.414,62.417c0,0 -5.242,6.218 0,11.46c5.242,5.242 12.923,-0 12.923,-0l57.401,-46.151l2.09,-27.726Z" style="fill:#160800;"/><path d="M490.47,515.292l56.202,54.204l11.459,-2.194c0,-0 5.852,14.168 2.682,17.203c-3.17,3.034 -4.389,5.716 -8.046,6.203c-3.657,0.488 -16.336,-2.925 -16.336,-2.925l1.951,-7.071l-45.365,-37.149l-2.547,-28.271Z" style="fill:#fff;"/><path d="M491.859,513.853l-3.862,-3.725l3.104,34.451l45.007,36.856c-0,-0 -2.14,7.756 -2.14,7.756l1.943,0.523c0,-0 13.291,3.487 17.12,2.977c2.31,-0.308 3.863,-1.283 5.326,-2.686c1.158,-1.11 2.255,-2.539 3.839,-4.056c0.635,-0.608 1.1,-1.459 1.344,-2.529c0.262,-1.149 0.271,-2.611 0.077,-4.211c-0.66,-5.428 -3.637,-12.67 -3.637,-12.67l-0.623,-1.508l-12.043,2.306c-6.647,-6.411 -55.455,-53.484 -55.455,-53.484Zm-1.389,1.439l56.202,54.204l11.459,-2.194c0,-0 5.852,14.168 2.682,17.203c-3.17,3.034 -4.389,5.716 -8.046,6.203c-3.657,0.488 -16.336,-2.925 -16.336,-2.925l1.951,-7.071l-45.365,-37.149l-2.547,-28.271Z" style="fill:#160800;"/><path d="M417.81,376.915l60.192,-0l23.239,257.912l-104.003,0l20.572,-257.912Zm7.238,-6.095l46.097,-0l30.096,-20.192l-0,-49.144l-104.003,0l-0,49.144l27.81,20.192Z" style="fill:#fff;"/><path d="M423.589,373.715l-8.734,-0l-21.083,264.312l110.97,0l-23.815,-264.312l-8.354,-0l31.868,-21.38l-0,-54.051l-110.403,0l-0,53.976l29.551,21.455Zm-5.779,3.2l60.192,-0l23.239,257.912l-104.003,0l20.572,-257.912Zm7.238,-6.095l46.097,-0l30.096,-20.192l-0,-49.144l-104.003,0l-0,49.144l27.81,20.192Z" style="fill:#160800;"/><path d="M468.592,312.473l-0,15.833l-1.314,0c-0.988,-4.132 -2.83,-7.299 -5.525,-9.5c-2.695,-2.2 -5.749,-3.301 -9.163,-3.301c-2.852,0 -5.468,0.82 -7.849,2.459c-2.381,1.64 -4.121,3.784 -5.222,6.435c-1.414,3.391 -2.122,7.164 -2.122,11.319c0,4.087 0.517,7.809 1.55,11.167c1.033,3.358 2.65,5.895 4.851,7.613c2.201,1.718 5.053,2.577 8.556,2.577c2.875,0 5.508,-0.628 7.9,-1.886c2.392,-1.258 4.913,-3.425 7.563,-6.502l-0,3.942c-2.56,2.672 -5.227,4.609 -8.001,5.811c-2.773,1.201 -6.013,1.802 -9.719,1.802c-4.873,0 -9.202,-0.977 -12.986,-2.931c-3.784,-1.954 -6.704,-4.761 -8.759,-8.422c-2.055,-3.66 -3.082,-7.557 -3.082,-11.689c-0,-4.357 1.139,-8.489 3.419,-12.397c2.279,-3.908 5.356,-6.94 9.23,-9.096c3.874,-2.156 7.99,-3.234 12.347,-3.234c3.211,0 6.603,0.696 10.173,2.089c2.067,0.808 3.38,1.213 3.942,1.213c0.719,-0 1.342,-0.264 1.87,-0.792c0.527,-0.528 0.87,-1.364 1.027,-2.51l1.314,0Z" style="fill:#160800;fill-rule:nonzero;"/><path d="M439.722,395.748l22.537,28.331l-0,-19.64c-0,-2.74 -0.393,-4.593 -1.18,-5.559c-1.078,-1.302 -2.885,-1.931 -5.423,-1.886l-0,-1.246l15.092,-0l-0,1.246c-1.932,0.247 -3.229,0.567 -3.891,0.96c-0.663,0.393 -1.179,1.033 -1.55,1.92c-0.37,0.887 -0.556,2.409 -0.556,4.565l0,38.033l-1.145,0l-30.891,-38.033l-0,29.039c-0,2.627 0.6,4.401 1.802,5.322c1.201,0.921 2.577,1.381 4.127,1.381l1.078,0l-0,1.247l-16.204,-0l-0,-1.247c2.515,-0.022 4.267,-0.539 5.255,-1.549c0.988,-1.011 1.482,-2.729 1.482,-5.154l0,-32.239l-0.977,-1.213c-0.965,-1.213 -1.819,-2.01 -2.56,-2.392c-0.741,-0.382 -1.808,-0.595 -3.2,-0.64l-0,-1.246l16.204,-0Z" style="fill:#160800;fill-rule:nonzero;"/><path d="M447.386,510.045l12.397,-30.117l18.595,0l0,1.246l-1.482,0c-1.348,0 -2.426,0.236 -3.234,0.708c-0.562,0.314 -1.011,0.842 -1.348,1.583c-0.247,0.539 -0.37,1.943 -0.37,4.211l-0,30.117c-0,2.335 0.123,3.795 0.37,4.379c0.247,0.584 0.753,1.095 1.516,1.533c0.764,0.438 1.786,0.657 3.066,0.657l1.482,-0l0,1.246l-23.851,0l0,-1.246l1.483,-0c1.347,-0 2.425,-0.236 3.234,-0.708c0.561,-0.314 1.01,-0.853 1.347,-1.617c0.247,-0.539 0.371,-1.953 0.371,-4.244l-0,-33.856l-17.518,41.671l-0.808,0l-17.787,-41.368l-0,32.172c-0,2.245 0.056,3.627 0.168,4.143c0.292,1.123 0.926,2.038 1.903,2.746c0.977,0.707 2.51,1.061 4.599,1.061l-0,1.246l-15.631,0l-0,-1.246l0.471,-0c1.011,0.022 1.954,-0.14 2.83,-0.489c0.876,-0.348 1.538,-0.814 1.988,-1.398c0.449,-0.584 0.797,-1.403 1.044,-2.459c0.045,-0.247 0.067,-1.392 0.067,-3.436l0,-28.904c0,-2.313 -0.123,-3.756 -0.37,-4.329c-0.247,-0.572 -0.753,-1.078 -1.516,-1.516c-0.764,-0.438 -1.786,-0.657 -3.066,-0.657l-1.448,0l-0,-1.246l18.663,0l12.835,30.117Z" style="fill:#160800;fill-rule:nonzero;"/><path d="M458.873,607.498l-0,1.247l-23.884,-0l-0,-1.247l1.515,0c1.325,0 2.392,-0.236 3.201,-0.707c0.584,-0.315 1.033,-0.854 1.347,-1.617c0.247,-0.539 0.371,-1.954 0.371,-4.245l-0,-30.049c-0,-2.336 -0.124,-3.796 -0.371,-4.38c-0.247,-0.584 -0.746,-1.094 -1.499,-1.532c-0.752,-0.438 -1.768,-0.657 -3.049,-0.657l-1.515,-0l-0,-1.247l23.884,0l-0,1.247l-1.516,-0c-1.325,-0 -2.392,0.236 -3.2,0.707c-0.584,0.315 -1.045,0.854 -1.381,1.617c-0.248,0.539 -0.371,1.954 -0.371,4.245l-0,30.049c-0,2.336 0.129,3.795 0.387,4.379c0.259,0.584 0.764,1.095 1.516,1.533c0.753,0.438 1.769,0.657 3.049,0.657l1.516,0Z" style="fill:#160800;fill-rule:nonzero;"/><g><path d="M71.992,594.46l-6.792,-21.124c-1.532,-4.764 -2.335,-8.512 -2.409,-11.246c-0.091,-3.676 0.741,-7.117 2.496,-10.324c1.755,-3.207 4.26,-6.023 7.516,-8.448c3.256,-2.426 7.565,-4.501 12.927,-6.225c4.712,-1.515 8.961,-2.235 12.748,-2.16c4.625,0.093 8.653,1.052 12.084,2.879c2.597,1.376 4.99,3.594 7.18,6.652c1.627,2.292 3.127,5.572 4.5,9.842l6.993,21.749l-57.243,18.405Zm5.968,-14.671l37.914,-12.191l-2.775,-8.63c-1.037,-3.227 -1.969,-5.499 -2.794,-6.813c-1.071,-1.724 -2.365,-3.024 -3.882,-3.9c-1.517,-0.877 -3.683,-1.293 -6.498,-1.25c-2.815,0.044 -6.435,0.777 -10.861,2.2c-4.425,1.423 -7.696,2.905 -9.814,4.448c-2.118,1.543 -3.615,3.23 -4.49,5.063c-0.876,1.832 -1.201,3.904 -0.974,6.215c0.154,1.731 0.989,4.953 2.504,9.664l1.67,5.194Z" style="fill-rule:nonzero;"/><path d="M108.867,502.984l-59.839,5.894l-4.371,-44.369l10.123,-0.998l3.18,32.288l13.266,-1.307l-2.959,-30.042l10.082,-0.993l2.959,30.042l16.287,-1.604l-3.293,-33.43l10.082,-0.993l4.483,45.512Z" style="fill-rule:nonzero;"/><path d="M104.456,431.936l-59.796,-6.32l2.048,-19.374c0.776,-7.342 1.581,-12.096 2.414,-14.263c1.26,-3.331 3.514,-5.994 6.763,-7.988c3.249,-1.993 7.253,-2.739 12.012,-2.236c3.671,0.388 6.686,1.38 9.047,2.977c2.361,1.597 4.147,3.497 5.358,5.701c1.21,2.204 1.935,4.391 2.173,6.561c0.266,2.942 0.111,7.147 -0.467,12.612l-0.832,7.873l22.556,2.383l-1.276,12.074Zm-48.404,-17.324l16.968,1.793l0.698,-6.608c0.503,-4.758 0.526,-7.973 0.071,-9.643c-0.456,-1.671 -1.302,-3.032 -2.538,-4.083c-1.237,-1.052 -2.738,-1.671 -4.506,-1.858c-2.175,-0.23 -4.038,0.219 -5.587,1.348c-1.549,1.128 -2.603,2.653 -3.164,4.573c-0.424,1.413 -0.866,4.295 -1.326,8.645l-0.616,5.833Z" style="fill-rule:nonzero;"/><path d="M128.815,315.642l-3.857,12.631l-14.596,1.032l-7.02,22.987l11.614,8.736l-3.762,12.317l-50.667,-39.96l3.749,-12.278l64.539,-5.465Zm-29.28,14.431l-23.76,1.407l18.968,14.284l4.792,-15.691Z" style="fill-rule:nonzero;"/><path d="M137.809,295.894l-52.051,-30.102l12.792,-22.12c3.217,-5.563 6.022,-9.334 8.415,-11.314c2.393,-1.981 5.223,-3.037 8.489,-3.169c3.267,-0.133 6.439,0.691 9.516,2.471c3.906,2.258 6.467,5.271 7.684,9.039c1.217,3.768 0.836,8.127 -1.144,13.079c2.64,-1.506 5.181,-2.54 7.622,-3.102c2.442,-0.562 6.412,-0.927 11.91,-1.096l13.831,-0.483l-7.269,12.569l-15.721,1.048c-5.608,0.358 -9.226,0.729 -10.855,1.114c-1.628,0.385 -2.959,1.021 -3.993,1.908c-1.034,0.886 -2.249,2.537 -3.645,4.951l-1.232,2.131l21.729,12.566l-6.078,10.51Zm-23.96,-27.881l4.497,-7.776c2.916,-5.042 4.524,-8.313 4.823,-9.814c0.3,-1.501 0.134,-2.908 -0.497,-4.22c-0.631,-1.313 -1.727,-2.42 -3.29,-3.324c-1.751,-1.013 -3.436,-1.363 -5.054,-1.051c-1.617,0.312 -3.061,1.238 -4.331,2.778c-0.611,0.784 -2.148,3.306 -4.612,7.567l-4.744,8.201l13.208,7.639Z" style="fill-rule:nonzero;"/><path d="M187.16,221.581l-37.538,-32.964l-11.773,13.407l-7.643,-6.712l31.529,-35.905l7.644,6.712l-11.746,13.376l37.538,32.964l-8.011,9.122Z" style="fill-rule:nonzero;"/><path d="M223.503,183.125l-35.584,-48.469l14.647,-10.753l33.067,26.606l-15.577,-39.446l14.679,-10.777l35.584,48.469l-9.092,6.675l-28.011,-38.154l18.39,45.218l-9.423,6.917l-37.599,-31.114l28.011,38.154l-9.092,6.674Z" style="fill-rule:nonzero;"/><path d="M294.359,135.803l-23.713,-55.256l40.971,-17.583l4.011,9.348l-29.814,12.794l5.257,12.25l27.741,-11.905l3.996,9.31l-27.741,11.905l6.454,15.039l30.869,-13.248l3.995,9.31l-42.026,18.036Z" style="fill-rule:nonzero;"/><path d="M360.801,110.09l-11.697,-58.98l11.586,-2.298l31.951,34.6l-7.811,-39.387l11.063,-2.195l11.698,58.981l-11.949,2.369l-31.405,-33.746l7.628,38.462l-11.064,2.194Z" style="fill-rule:nonzero;"/><path d="M449.154,98.781l0.455,-49.955l-17.841,-0.162l0.093,-10.172l47.781,0.436l-0.093,10.171l-17.8,-0.162l-0.455,49.955l-12.14,-0.111Z" style="fill-rule:nonzero;"/><path d="M582.976,91.36c2.565,-5.562 5.55,-9.847 8.954,-12.854c2.524,-2.208 5.37,-3.922 8.537,-5.141c3.167,-1.22 6.275,-1.774 9.325,-1.662c4.066,0.129 8.321,1.218 12.766,3.268c8.045,3.71 13.331,9.174 15.859,16.393c2.528,7.218 1.742,15.272 -2.358,24.161c-4.065,8.815 -9.642,14.606 -16.73,17.374c-7.088,2.769 -14.643,2.304 -22.663,-1.395c-8.119,-3.745 -13.433,-9.199 -15.941,-16.363c-2.507,-7.164 -1.757,-15.091 2.251,-23.781Zm11.531,4.866c-2.851,6.183 -3.585,11.528 -2.201,16.036c1.384,4.507 4.274,7.775 8.669,9.802c4.395,2.026 8.731,2.107 13.01,0.241c4.278,-1.866 7.877,-5.965 10.797,-12.297c2.886,-6.257 3.667,-11.558 2.343,-15.902c-1.323,-4.345 -4.257,-7.565 -8.801,-9.66c-4.544,-2.096 -8.925,-2.227 -13.143,-0.393c-4.219,1.833 -7.776,5.891 -10.674,12.173Z" style="fill-rule:nonzero;"/><path d="M644.366,156.324l36.233,-47.986l32.896,24.839l-6.129,8.118l-23.208,-17.523l-8.576,11.358l20.032,15.126l-6.129,8.117l-20.033,-15.126l-15.397,20.393l-9.689,-7.316Z" style="fill-rule:nonzero;"/><path d="M741.879,253.956l51.603,-29.895l6.085,10.505l-42.836,24.817l15.132,26.12l-8.766,5.079l-21.218,-36.626Z" style="fill-rule:nonzero;"/><path d="M790.575,363.696l-4.218,-12.516l11.267,-9.336l-7.675,-22.777l-14.528,-0.342l-4.112,-12.204l64.459,2.993l4.1,12.166l-49.293,42.016Zm15.405,-28.78l18.499,-14.976l-23.738,-0.571l5.239,15.547Z" style="fill-rule:nonzero;"/><path d="M854.445,378.943l2.451,23.91c0.485,4.733 0.649,8.282 0.493,10.648c-0.156,2.366 -0.766,4.532 -1.829,6.496c-1.063,1.964 -2.572,3.665 -4.527,5.102c-1.956,1.438 -4.226,2.289 -6.81,2.554c-2.801,0.287 -5.449,-0.205 -7.943,-1.474c-2.494,-1.27 -4.459,-3.138 -5.893,-5.602c-0.687,3.754 -2.209,6.741 -4.565,8.962c-2.357,2.22 -5.262,3.507 -8.717,3.861c-2.72,0.279 -5.43,-0.082 -8.13,-1.084c-2.7,-1.001 -4.931,-2.518 -6.692,-4.55c-1.761,-2.032 -2.983,-4.635 -3.666,-7.809c-0.424,-1.99 -1.057,-6.832 -1.901,-14.524l-2.086,-20.36l59.815,-6.13Zm-8.718,13.097l-13.832,1.418l0.812,7.915c0.482,4.706 0.85,7.623 1.103,8.752c0.456,2.042 1.337,3.594 2.642,4.656c1.304,1.062 2.922,1.494 4.853,1.296c1.85,-0.189 3.301,-0.853 4.352,-1.992c1.052,-1.138 1.597,-2.727 1.635,-4.765c0.013,-1.21 -0.271,-4.658 -0.854,-10.343l-0.711,-6.937Zm-23.787,2.438l-15.995,1.639l1.146,11.18c0.446,4.352 0.852,7.101 1.216,8.245c0.511,1.762 1.456,3.143 2.837,4.142c1.38,0.999 3.131,1.39 5.253,1.173c1.795,-0.184 3.274,-0.776 4.436,-1.774c1.162,-0.999 1.944,-2.351 2.347,-4.055c0.403,-1.704 0.322,-5.303 -0.241,-10.798l-0.999,-9.752Z" style="fill-rule:nonzero;"/><path d="M829.509,461.73c6.082,0.722 11.078,2.239 14.989,4.549c2.88,1.719 5.389,3.896 7.526,6.532c2.137,2.636 3.624,5.422 4.459,8.357c1.132,3.908 1.41,8.291 0.832,13.152c-1.046,8.797 -4.611,15.512 -10.697,20.144c-6.085,4.633 -13.988,6.371 -23.709,5.216c-9.639,-1.146 -16.869,-4.663 -21.69,-10.55c-4.821,-5.888 -6.711,-13.217 -5.668,-21.987c1.055,-8.879 4.603,-15.617 10.643,-20.213c6.04,-4.597 13.811,-6.33 23.315,-5.2Zm-1.07,12.47c-6.761,-0.803 -12.071,0.149 -15.932,2.856c-3.86,2.708 -6.076,6.465 -6.647,11.271c-0.571,4.806 0.691,8.956 3.787,12.449c3.095,3.494 8.105,5.652 15.029,6.475c6.842,0.813 12.125,-0.08 15.849,-2.68c3.724,-2.601 5.881,-6.385 6.471,-11.354c0.591,-4.969 -0.637,-9.177 -3.683,-12.623c-3.046,-3.446 -8.004,-5.577 -14.874,-6.394Z" style="fill-rule:nonzero;"/><path d="M787.102,540.265l56.425,20.776l-8.828,23.979c-2.221,6.03 -4.341,10.225 -6.36,12.584c-2.02,2.36 -4.628,3.884 -7.824,4.572c-3.197,0.688 -6.463,0.418 -9.799,-0.811c-4.233,-1.558 -7.271,-4.09 -9.113,-7.595c-1.842,-3.504 -2.211,-7.865 -1.106,-13.082c-2.344,1.934 -4.671,3.387 -6.98,4.357c-2.31,0.971 -6.159,2.009 -11.549,3.113l-13.544,2.837l5.016,-13.626l15.311,-3.716c5.465,-1.309 8.967,-2.293 10.505,-2.95c1.539,-0.657 2.742,-1.511 3.61,-2.561c0.867,-1.05 1.783,-2.884 2.746,-5.501l0.851,-2.31l-23.556,-8.673l4.195,-11.393Zm28.367,23.382l-3.103,8.43c-2.013,5.465 -3.038,8.963 -3.077,10.493c-0.039,1.53 0.364,2.888 1.21,4.073c0.845,1.186 2.115,2.09 3.809,2.714c1.898,0.699 3.618,0.757 5.159,0.173c1.541,-0.584 2.805,-1.743 3.793,-3.477c0.469,-0.876 1.553,-3.624 3.254,-8.243l3.273,-8.891l-14.318,-5.272Z" style="fill-rule:nonzero;"/></g></g></svg>